<?xml version="1.0" encoding="iso-8859-1"?>
<!-- Generator: Adobe Illustrator 19.0.0, SVG Export Plug-In . SVG Version: 6.00 Build 0)  -->
<svg version="1.1" id="Capa_1" xmlns="http://www.w3.org/2000/svg" xmlns:xlink="http://www.w3.org/1999/xlink" x="0px" y="0px"
	 viewBox="0 0 512 512" style="enable-background:new 0 0 512 512;" xml:space="preserve">
<circle style="fill:#8CEEF9;" cx="256" cy="256" r="250.88"/>
<path style="fill:#0ABFB2;" d="M291.328,149.914L291.328,149.914c-8.397,8.397-22.118,8.397-30.618,0l-35.123-35.226
	c-8.397-8.397-8.397-22.118,0-30.618l0,0c8.397-8.397,22.118-8.397,30.618,0l35.123,35.123
	C299.725,127.693,299.725,141.414,291.328,149.914z"/>
<path style="fill:#508DEF;" d="M260.71,149.914c8.602,8.602,22.733,8.397,31.13-0.512c7.987-8.602,7.373-22.118-0.922-30.413
	l-17.101-17.101h-0.102L243.2,132.403v0.102L260.71,149.914z"/>
<ellipse style="fill:#E0E0E0;" cx="119.6" cy="267.897" rx="34.406" ry="34.406"/>
<path style="fill:#FF8939;" d="M156.57,151.347l-6.451,6.451c-3.994,3.994-3.994,10.445,0,14.438l8.704,8.704l20.992-20.992
	l-8.704-8.704C167.014,147.354,160.563,147.354,156.57,151.347z"/>
<path style="fill:#FFC5B3;" d="M350.925,305.664l-46.592,46.592L156.877,204.595c-6.042-6.042-6.042-15.77,0-21.709l24.781-24.781
	c6.042-6.042,15.77-6.042,21.709,0L350.925,305.664z"/>
<g>
	<path style="fill:#FFECE9;" d="M177.357,201.318c-1.331,0-2.662-0.512-3.584-1.536l-2.355-2.355c-2.048-2.048-2.048-5.222,0-7.27
		c2.048-2.048,5.222-2.048,7.27,0l2.355,2.355c2.048,2.048,2.048,5.222,0,7.27C179.917,200.806,178.586,201.318,177.357,201.318z"/>
	<path style="fill:#FFECE9;" d="M304.333,328.294c-1.331,0-2.662-0.512-3.584-1.536L189.44,215.552c-2.048-2.048-2.048-5.222,0-7.27
		c2.048-2.048,5.222-2.048,7.27,0L308.019,319.59c2.048,2.048,2.048,5.222,0,7.27C306.995,327.782,305.664,328.294,304.333,328.294z
		"/>
	<path style="fill:#FFECE9;" d="M369.357,287.13l-83.456,83.456c-4.096,4.096-4.096,10.854,0,14.95l0,0
		c4.096,4.096,10.854,4.096,14.95,0l83.456-83.456c4.096-4.096,4.096-10.854,0-14.95l0,0
		C380.211,283.034,373.453,283.034,369.357,287.13z"/>
	<path style="fill:#FFECE9;" d="M399.667,350.106l-50.79,50.79c-4.506,4.506-4.506,11.981,0,16.486l0,0
		c4.506,4.506,11.981,4.506,16.486,0l50.79-50.79c4.506-4.506,4.506-11.981,0-16.486l0,0
		C411.648,345.6,404.275,345.6,399.667,350.106z"/>
	
		<rect x="343.136" y="337.351" transform="matrix(-0.7071 0.7071 -0.7071 -0.7071 866.1803 360.6663)" style="fill:#FFECE9;" width="30.515" height="44.748"/>
</g>
<rect x="255.009" y="233.083" transform="matrix(-0.7071 0.7071 -0.7071 -0.7071 696.0567 290.1809)" style="fill:#FF3E63;" width="65.843" height="112.332"/>
<g>
	<path style="fill:#1C1D21;" d="M304.333,357.274c-1.331,0-2.662-0.512-3.584-1.536L153.19,208.282
		c-3.891-3.891-6.042-9.011-6.042-14.438s2.15-10.65,6.042-14.438l24.781-24.781c3.891-3.891,9.011-6.042,14.438-6.042
		s10.65,2.15,14.438,6.042c2.048,2.048,2.048,5.222,0,7.27c-2.048,2.048-5.222,2.048-7.27,0c-1.946-1.946-4.506-2.97-7.27-2.97
		c-2.765,0-5.325,1.024-7.27,2.97l-24.781,24.781c-1.946,1.946-2.97,4.506-2.97,7.27s1.024,5.325,2.97,7.27l143.872,143.872
		l39.322-39.322L229.683,191.693c-2.048-2.048-2.048-5.222,0-7.27c2.048-2.048,5.222-2.048,7.27,0l117.555,117.555
		c2.048,2.048,2.048,5.222,0,7.27l-46.592,46.592C306.995,356.762,305.766,357.274,304.333,357.274z"/>
	<path style="fill:#1C1D21;" d="M219.955,179.814c-1.331,0-2.662-0.512-3.584-1.536l-3.379-3.379c-2.048-2.048-2.048-5.222,0-7.27
		c2.048-2.048,5.222-2.048,7.27,0l3.379,3.379c2.048,2.048,2.048,5.222,0,7.27C222.618,179.302,221.286,179.814,219.955,179.814z"/>
	<path style="fill:#1C1D21;" d="M304.333,357.274c-1.331,0-2.662-0.512-3.584-1.536l-79.36-79.36
		c-0.922-0.922-1.536-2.253-1.536-3.584s0.512-2.662,1.536-3.584l46.592-46.592c2.048-2.048,5.222-2.048,7.27,0l79.36,79.36
		c2.048,2.048,2.048,5.222,0,7.27l-46.592,46.592C306.995,356.762,305.766,357.274,304.333,357.274z M232.243,272.794l72.192,72.192
		l39.322-39.322l-72.294-72.192L232.243,272.794z"/>
	<path style="fill:#1C1D21;" d="M293.376,393.83c-3.994,0-8.09-1.536-11.059-4.608c-6.144-6.144-6.144-16.077,0-22.221
		l83.456-83.456c6.144-6.144,16.077-6.144,22.221,0c6.144,6.144,6.144,16.077,0,22.221l-83.456,83.456
		C301.466,392.294,297.472,393.83,293.376,393.83z M376.832,289.178c-1.434,0-2.867,0.614-3.891,1.638l-83.456,83.456
		c-2.15,2.15-2.15,5.632,0,7.68c2.15,2.15,5.632,2.15,7.68,0l83.456-83.456c1.024-1.024,1.638-2.355,1.638-3.891
		s-0.614-2.867-1.638-3.891C379.699,289.792,378.266,289.178,376.832,289.178z"/>
	<path style="fill:#1C1D21;" d="M357.171,425.984c-4.301,0-8.602-1.638-11.878-4.915c-3.174-3.174-4.915-7.373-4.915-11.878
		s1.741-8.704,4.915-11.878l50.79-50.79c3.174-3.174,7.373-4.915,11.878-4.915s8.704,1.741,11.878,4.915
		c3.174,3.174,4.915,7.373,4.915,11.878c0,4.506-1.741,8.704-4.915,11.878l-50.79,50.79
		C365.773,424.346,361.472,425.984,357.171,425.984z M407.962,351.846c-1.741,0-3.379,0.717-4.608,1.946l0,0l-50.79,50.79
		c-1.229,1.229-1.946,2.867-1.946,4.608s0.717,3.379,1.946,4.608c2.56,2.56,6.656,2.56,9.216,0l50.79-50.79
		c1.229-1.229,1.946-2.867,1.946-4.608s-0.717-3.379-1.946-4.608S409.702,351.846,407.962,351.846z M399.667,350.106
		L399.667,350.106L399.667,350.106z"/>
	<path style="fill:#1C1D21;" d="M158.822,186.061c-1.331,0-2.662-0.512-3.584-1.536l-8.704-8.704c-5.939-5.939-5.939-15.77,0-21.709
		l6.451-6.451l0,0c5.939-5.939,15.77-5.939,21.709,0l8.704,8.704c2.048,2.048,2.048,5.222,0,7.27l-20.992,20.992
		C161.382,185.651,160.051,186.061,158.822,186.061z M160.154,154.931l-6.451,6.451c-1.946,2.048-1.946,5.222,0,7.27l5.12,5.12
		l13.722-13.722l-5.12-5.12C165.376,152.986,162.202,152.986,160.154,154.931L160.154,154.931z"/>
	<path style="fill:#1C1D21;" d="M153.293,159.642c-1.331,0-2.662-0.512-3.584-1.536l-25.498-25.498c-2.048-2.048-2.048-5.222,0-7.27
		c2.048-2.048,5.222-2.048,7.27,0l25.498,25.498c2.048,2.048,2.048,5.222,0,7.27C155.955,159.232,154.624,159.642,153.293,159.642z"
		/>
	<path style="fill:#1C1D21;" d="M363.52,391.475c-1.331,0-2.662-0.512-3.584-1.536l-31.642-31.642c-2.048-2.048-2.048-5.222,0-7.27
		l21.606-21.606c0.922-0.922,2.253-1.536,3.584-1.536s2.662,0.512,3.584,1.536l31.642,31.642c2.048,2.048,2.048,5.222,0,7.27
		l-21.606,21.606C366.182,390.963,364.851,391.475,363.52,391.475z M339.046,354.611l24.474,24.474l14.336-14.336l-24.474-24.474
		L339.046,354.611z"/>
	<path style="fill:#1C1D21;" d="M191.488,244.429c-1.331,0-2.662-0.512-3.584-1.536c-2.048-2.048-2.048-5.222,0-7.27l8.397-8.397
		c2.048-2.048,5.222-2.048,7.27,0s2.048,5.222,0,7.27l-8.397,8.397C194.15,243.917,192.819,244.429,191.488,244.429z"/>
	<path style="fill:#1C1D21;" d="M208.282,261.12c-1.331,0-2.662-0.512-3.584-1.536c-2.048-2.048-2.048-5.222,0-7.27l8.397-8.397
		c2.048-2.048,5.222-2.048,7.27,0s2.048,5.222,0,7.27l-8.397,8.397C210.842,260.608,209.51,261.12,208.282,261.12z"/>
	<path style="fill:#1C1D21;" d="M224.973,277.914c-1.331,0-2.662-0.512-3.584-1.536c-2.048-2.048-2.048-5.222,0-7.27l8.397-8.397
		c2.048-2.048,5.222-2.048,7.27,0c2.048,2.048,2.048,5.222,0,7.27l-8.397,8.397C227.533,277.402,226.304,277.914,224.973,277.914z"
		/>
	<path style="fill:#1C1D21;" d="M241.664,294.605c-1.331,0-2.662-0.512-3.584-1.536c-2.048-2.048-2.048-5.222,0-7.27l8.397-8.397
		c2.048-2.048,5.222-2.048,7.27,0c2.048,2.048,2.048,5.222,0,7.27l-8.397,8.397C244.326,294.093,242.995,294.605,241.664,294.605z"
		/>
	<path style="fill:#1C1D21;" d="M174.797,227.738c-1.331,0-2.662-0.512-3.584-1.536c-2.048-2.048-2.048-5.222,0-7.27l8.397-8.397
		c2.048-2.048,5.222-2.048,7.27,0c2.048,2.048,2.048,5.222,0,7.27l-8.397,8.397C177.357,227.226,176.128,227.738,174.797,227.738z"
		/>
	<path style="fill:#1C1D21;" d="M116.122,122.47c-1.331,0-2.662-0.512-3.584-1.536l-3.891-3.891c-2.048-2.048-2.048-5.222,0-7.27
		c2.048-2.048,5.222-2.048,7.27,0l3.891,3.891c2.048,2.048,2.048,5.222,0,7.27C118.682,121.958,117.453,122.47,116.122,122.47z"/>
	<path style="fill:#1C1D21;" d="M275.968,161.28c-6.861,0-13.722-2.56-18.944-7.782l-35.123-35.123
		c-5.018-5.018-7.885-11.776-7.885-18.944s2.765-13.824,7.885-18.944c5.018-5.018,11.776-7.885,18.944-7.885
		s13.824,2.765,18.944,7.885l35.123,35.226c5.018,5.018,7.885,11.776,7.885,18.944s-2.765,13.824-7.885,18.944
		C289.69,158.72,282.829,161.28,275.968,161.28z M240.845,82.944c-4.403,0-8.602,1.741-11.674,4.813
		c-3.072,3.072-4.813,7.27-4.813,11.674c0,4.403,1.741,8.602,4.813,11.674l35.123,35.123c6.451,6.451,16.896,6.451,23.347,0
		l3.584,3.584l-3.584-3.584c3.072-3.072,4.813-7.27,4.813-11.674c0-4.403-1.741-8.602-4.813-11.674l-35.123-35.123
		C249.446,84.685,245.248,82.944,240.845,82.944z"/>
	<path style="fill:#1C1D21;" d="M275.968,161.382c-7.168,0-13.824-2.765-18.944-7.885l-17.51-17.51
		c-0.922-0.922-1.536-2.253-1.536-3.686c0-1.331,0.512-2.662,1.536-3.686l30.515-30.515c2.048-2.048,5.325-2.048,7.27,0L294.4,115.2
		c10.342,10.342,10.752,27.136,1.024,37.581c-5.018,5.325-11.776,8.397-19.149,8.499
		C276.275,161.382,276.173,161.382,275.968,161.382z M250.368,132.301l13.926,13.926l0,0c3.174,3.174,7.373,4.915,11.981,4.813
		c4.506-0.102,8.704-1.946,11.776-5.222c6.042-6.451,5.632-16.896-0.819-23.347l-13.517-13.517L250.368,132.301z"/>
</g>
<path style="fill:#0ABFB2;" d="M357.274,247.091L357.274,247.091c-8.397-8.397-8.397-22.118,0-30.618l35.123-35.123
	c8.397-8.397,22.118-8.397,30.618,0l0,0c8.397,8.397,8.397,22.118,0,30.618l-35.123,35.123
	C379.392,255.488,365.67,255.488,357.274,247.091z"/>
<path style="fill:#FF8939;" d="M357.274,216.474c-8.602,8.602-8.397,22.733,0.512,31.13c8.602,7.987,22.118,7.373,30.413-0.922
	l17.101-17.101v-0.102l-30.515-30.515h-0.102L357.274,216.474z"/>
<g>
	<path style="fill:#1C1D21;" d="M372.531,258.56c-7.168,0-13.824-2.765-18.944-7.885c-10.445-10.445-10.445-27.443,0-37.786
		l35.123-35.123c5.018-5.018,11.776-7.885,18.944-7.885s13.824,2.765,18.944,7.885c10.445,10.445,10.445,27.443,0,37.786
		l-35.123,35.123C386.355,255.795,379.699,258.56,372.531,258.56z M407.654,180.122c-4.403,0-8.602,1.741-11.674,4.813
		l-35.123,35.226c-6.451,6.451-6.451,16.896,0,23.347c3.072,3.072,7.27,4.813,11.674,4.813c4.403,0,8.602-1.741,11.674-4.813
		l35.123-35.123c6.451-6.451,6.451-16.896,0-23.347C416.256,181.862,412.058,180.122,407.654,180.122z"/>
	<path style="fill:#1C1D21;" d="M372.326,258.355c-6.554,0-13.005-2.355-18.022-6.963c-5.325-5.018-8.397-11.776-8.499-19.149
		c-0.102-7.27,2.662-14.234,7.782-19.354l0,0l17.51-17.51c0.922-0.922,2.253-1.536,3.686-1.536s2.662,0.512,3.686,1.536
		l30.515,30.515l0.102,0.102c1.946,2.048,1.843,5.222-0.102,7.27l-17.101,17.101C386.56,255.693,379.392,258.355,372.326,258.355z
		 M360.858,220.16c-3.174,3.174-4.915,7.475-4.813,11.981c0.102,4.506,1.946,8.704,5.222,11.776
		c6.451,6.042,16.896,5.632,23.347-0.819l13.517-13.517l-23.347-23.45L360.858,220.16z"/>
	<path style="fill:#1C1D21;" d="M119.603,307.405c-10.547,0-20.48-4.096-27.955-11.571s-11.571-17.408-11.571-27.955
		c0-10.547,4.096-20.48,11.571-27.955s17.408-11.571,27.955-11.571s20.48,4.096,27.955,11.571l0,0l0,0
		c7.475,7.475,11.571,17.408,11.571,27.955c0,10.547-4.096,20.48-11.571,27.955S130.15,307.405,119.603,307.405z M119.603,238.694
		c-7.782,0-15.155,3.072-20.685,8.602c-5.53,5.53-8.602,12.902-8.602,20.685s3.072,15.155,8.602,20.685
		c5.53,5.53,12.902,8.602,20.685,8.602s15.155-3.072,20.685-8.602c5.53-5.53,8.602-12.902,8.602-20.685s-3.072-15.155-8.602-20.685
		l0,0C134.758,241.664,127.488,238.694,119.603,238.694z"/>
	<path style="fill:#1C1D21;" d="M95.334,297.267c-1.331,0-2.662-0.512-3.584-1.536c-2.048-2.048-2.048-5.222,0-7.27l22.323-22.323
		c2.048-2.048,5.222-2.048,7.27,0c2.048,2.048,2.048,5.222,0,7.27l-22.323,22.323C97.997,296.858,96.666,297.267,95.334,297.267z"/>
	<path style="fill:#1C1D21;" d="M130.253,262.451c-1.331,0-2.662-0.512-3.584-1.536c-2.048-2.048-2.048-5.222,0-7.27l1.843-1.843
		c2.048-2.048,5.222-2.048,7.27,0s2.048,5.222,0,7.27l-1.843,1.843C132.813,261.939,131.482,262.451,130.253,262.451z"/>
	<path style="fill:#1C1D21;" d="M256,512c-68.403,0-132.71-26.624-181.043-74.957S0,324.403,0,256S26.624,123.29,74.957,74.957
		S187.597,0,256,0s132.71,26.624,181.043,74.957S512,187.597,512,256s-26.624,132.71-74.957,181.043S324.403,512,256,512z
		 M256,10.24C120.525,10.24,10.24,120.525,10.24,256S120.525,501.76,256,501.76S501.76,391.475,501.76,256S391.475,10.24,256,10.24z
		"/>
</g>
<path style="fill:#FF3E63;" d="M444.211,90.214L444.211,90.214L444.211,90.214C398.234,37.99,330.957,5.12,256,5.12
	C117.453,5.12,5.12,117.453,5.12,256S117.453,506.88,256,506.88S506.88,394.547,506.88,256
	C506.88,192.41,483.226,134.349,444.211,90.214z M256,35.226c55.296,0,105.779,20.275,144.486,53.862l0,0L89.088,400.486l0,0
	C55.501,361.779,35.226,311.296,35.226,256C35.226,134.042,134.042,35.226,256,35.226z M256,476.774
	c-55.296,0-105.779-20.275-144.486-53.862l0,0l311.398-311.398l0,0c33.587,38.707,53.862,89.19,53.862,144.486
	C476.774,377.958,377.958,476.774,256,476.774z"/>
<path style="fill:#FFAEC3;" d="M304.333,328.294c-1.331,0-2.662-0.512-3.584-1.536l-46.592-46.592c-2.048-2.048-2.048-5.222,0-7.27
	c2.048-2.048,5.222-2.048,7.27,0l46.592,46.592c2.048,2.048,2.048,5.222,0,7.27C306.995,327.782,305.664,328.294,304.333,328.294z"
	/>
<g>
	<path style="fill:#1C1D21;" d="M256,512c-68.403,0-132.71-26.624-181.043-74.957S0,324.403,0,256S26.624,123.29,74.957,74.957
		S187.597,0,256,0c73.421,0,143.462,31.642,192.102,86.733l0,0C489.267,133.53,512,193.638,512,256
		c0,68.403-26.624,132.71-74.957,181.043S324.403,512,256,512z M256,10.24C120.525,10.24,10.24,120.525,10.24,256
		S120.525,501.76,256,501.76S501.76,391.475,501.76,256c0-59.802-21.811-117.555-61.338-162.406l0,0
		C393.728,40.653,326.554,10.24,256,10.24z M256,481.894c-54.374,0-106.803-19.558-147.866-55.091
		c-1.024-0.922-1.741-2.253-1.741-3.686s0.512-2.765,1.536-3.789L419.328,107.93c1.024-1.024,2.355-1.536,3.789-1.536
		c1.434,0,2.765,0.717,3.686,1.741c35.533,40.96,55.091,93.491,55.091,147.866c0,60.314-23.45,117.043-66.15,159.744
		C373.043,458.342,316.314,481.894,256,481.894z M119.091,422.605c38.502,31.642,86.938,49.05,136.909,49.05
		c118.886,0,215.654-96.768,215.654-215.654c0-50.074-17.408-98.406-49.05-136.909L119.091,422.605z M89.088,405.606
		c-0.102,0-0.102,0-0.205,0c-1.434,0-2.765-0.717-3.686-1.741C49.664,362.906,30.106,310.374,30.106,256
		c0-60.314,23.45-117.043,66.15-159.744s99.43-66.15,159.744-66.15c54.374,0,106.803,19.558,147.866,55.091
		c1.024,0.922,1.741,2.253,1.741,3.686s-0.512,2.765-1.536,3.789L92.672,404.07C91.75,405.094,90.419,405.606,89.088,405.606z
		 M256,40.346C137.114,40.346,40.346,137.114,40.346,256c0,49.971,17.408,98.406,49.05,136.909L392.909,89.395
		C354.406,57.754,305.971,40.346,256,40.346z"/>
	<path style="fill:#1C1D21;" d="M258.458,311.296c-1.331,0-2.662-0.512-3.584-1.536c-2.048-2.048-2.048-5.222,0-7.27l8.397-8.397
		c2.048-2.048,5.222-2.048,7.27,0s2.048,5.222,0,7.27l-8.397,8.397C261.018,310.784,259.686,311.296,258.458,311.296z"/>
	<path style="fill:#1C1D21;" d="M275.149,328.09c-1.331,0-2.662-0.512-3.584-1.536c-2.048-2.048-2.048-5.222,0-7.27l8.397-8.397
		c2.048-2.048,5.222-2.048,7.27,0s2.048,5.222,0,7.27l-8.397,8.397C277.811,327.578,276.48,328.09,275.149,328.09z"/>
</g>
<g>
</g>
<g>
</g>
<g>
</g>
<g>
</g>
<g>
</g>
<g>
</g>
<g>
</g>
<g>
</g>
<g>
</g>
<g>
</g>
<g>
</g>
<g>
</g>
<g>
</g>
<g>
</g>
<g>
</g>
</svg>
